# xmcd CD database file
#
# Track frame offsets:
#	150
#	9867
#	20121
#	29327
#	41673
#	53050
#	61648
#	71320
#	82853
#	96021
#	107413
#	123799
#	132520
#	142783
#	151120
#	162261
#	174856
#	181559
#	191230
#	200094
#	209721
#	220223
#	236101
#	247889
#	259656
#	269370
#	281491
#	290922
#	301185
#	312754
#	324288
#
# Disc length: 4486 seconds
#
# Revision: 1
# Processed by: cddbd v1.5.2PL0 Copyright (c) Steve Scherf et al.
# Submitted via: CDex 1.79
#
DISCID=a611841f
DTITLE=Charlie Rich - Charlie Rocks
DYEAR=1900
DGENRE=Country
TTITLE0=Whirlwind (Undubbed Version)
TTITLE1=Everything I Do Is Wrong
TTITLE2=Philadelphia Baby
TTITLE3=Big Man
TTITLE4=Rebound
TTITLE5=That's Rich
TTITLE6=Lonely Weekends (Master)
TTITLE7=Break Up
TTITLE8=Midnite Blues
TTITLE9=Little Woman Friend Of Mine
TTITLE10=Goodbye Mary Ann (alt 3)
TTITLE11=You Made A Hit
TTITLE12=Red Man
TTITLE13=Donna Lee
TTITLE14=Popcorn Polly
TTITLE15=Gentle As A Lamb
TTITLE16=Charlie's Boogie
TTITLE17=Stop Thief
TTITLE18=Right Behind You Baby
TTITLE19=Lonely Weekends (Undubbed Alternate Take)
TTITLE20=Yes Ma'am
TTITLE21=Big Man (Undubbed Alternate Take)
TTITLE22=Big Boss Man
TTITLE23=The Ways Of A Woman In Love
TTITLE24=Mohair Sam
TTITLE25=I Washed My Hands In Muddy Water
TTITLE26=Just A Little Bit Of Time
TTITLE27=It Ain`t Gonna Be That Way
TTITLE28=That's My Way
TTITLE29=Just A Little Bit Of You
TTITLE30=So Long
EXTD=
EXTT0=
EXTT1=
EXTT2=
EXTT3=
EXTT4=
EXTT5=
EXTT6=
EXTT7=
EXTT8=
EXTT9=
EXTT10=
EXTT11=
EXTT12=
EXTT13=
EXTT14=
EXTT15=
EXTT16=
EXTT17=
EXTT18=
EXTT19=
EXTT20=
EXTT21=
EXTT22=
EXTT23=
EXTT24=
EXTT25=
EXTT26=
EXTT27=
EXTT28=
EXTT29=
EXTT30=
PLAYORDER=
